# MagicaVoxel @ Ephtracy

# group
g gameCube_8_a

# material
mtllib gameCube_8_a.mtl
usemtl palette

# normals
vn -1 0 0
vn 1 0 0
vn 0 0 1
vn 0 0 -1
vn 0 -1 0
vn 0 1 0

# texcoords
vt 0.470703 0.5
vt 0.744141 0.5
vt 0.775391 0.5

# verts
v -4 0 4
v -4 0 1
v -4 0 -1
v -4 0 -4
v -4 1 3
v -4 1 1
v -4 1 -1
v -4 1 -3
v -4 2 2
v -4 2 -2
v -4 3 4
v -4 3 3
v -4 3 1
v -4 3 -1
v -4 3 -3
v -4 3 -4
v -4 5 4
v -4 5 3
v -4 5 1
v -4 5 -1
v -4 5 -3
v -4 5 -4
v -4 6 2
v -4 6 -2
v -4 7 3
v -4 7 1
v -4 7 -1
v -4 7 -3
v -4 8 4
v -4 8 1
v -4 8 -1
v -4 8 -4
v -2 0 2
v -2 0 -2
v -2 1 2
v -2 1 -2
v -2 2 4
v -2 2 3
v -2 2 -3
v -2 2 -4
v -2 6 4
v -2 6 3
v -2 6 -3
v -2 6 -4
v -2 7 2
v -2 7 -2
v -2 8 2
v -2 8 -2
v 1 0 1
v 1 0 -1
v 1 1 1
v 1 1 -1
v 1 3 4
v 1 3 3
v 1 3 -3
v 1 3 -4
v 1 5 4
v 1 5 3
v 1 5 -3
v 1 5 -4
v 1 7 1
v 1 7 -1
v 1 8 1
v 1 8 -1
v 3 0 3
v 3 0 1
v 3 0 -1
v 3 0 -3
v 3 1 4
v 3 1 3
v 3 1 1
v 3 1 -1
v 3 1 -3
v 3 1 -4
v 3 2 2
v 3 2 -2
v 3 3 4
v 3 3 3
v 3 3 1
v 3 3 -1
v 3 3 -3
v 3 3 -4
v 3 5 4
v 3 5 3
v 3 5 1
v 3 5 -1
v 3 5 -3
v 3 5 -4
v 3 6 2
v 3 6 -2
v 3 7 4
v 3 7 3
v 3 7 1
v 3 7 -1
v 3 7 -3
v 3 7 -4
v 3 8 3
v 3 8 1
v 3 8 -1
v 3 8 -3
v -3 0 3
v -3 0 1
v -3 0 -1
v -3 0 -3
v -3 1 4
v -3 1 3
v -3 1 1
v -3 1 -1
v -3 1 -3
v -3 1 -4
v -3 2 2
v -3 2 -2
v -3 3 4
v -3 3 3
v -3 3 1
v -3 3 -1
v -3 3 -3
v -3 3 -4
v -3 5 4
v -3 5 3
v -3 5 1
v -3 5 -1
v -3 5 -3
v -3 5 -4
v -3 6 2
v -3 6 -2
v -3 7 4
v -3 7 3
v -3 7 1
v -3 7 -1
v -3 7 -3
v -3 7 -4
v -3 8 3
v -3 8 1
v -3 8 -1
v -3 8 -3
v -1 0 1
v -1 0 -1
v -1 1 1
v -1 1 -1
v -1 3 4
v -1 3 3
v -1 3 -3
v -1 3 -4
v -1 5 4
v -1 5 3
v -1 5 -3
v -1 5 -4
v -1 7 1
v -1 7 -1
v -1 8 1
v -1 8 -1
v 2 0 2
v 2 0 -2
v 2 1 2
v 2 1 -2
v 2 2 4
v 2 2 3
v 2 2 -3
v 2 2 -4
v 2 6 4
v 2 6 3
v 2 6 -3
v 2 6 -4
v 2 7 2
v 2 7 -2
v 2 8 2
v 2 8 -2
v 4 0 4
v 4 0 1
v 4 0 -1
v 4 0 -4
v 4 1 3
v 4 1 1
v 4 1 -1
v 4 1 -3
v 4 2 2
v 4 2 -2
v 4 3 4
v 4 3 3
v 4 3 1
v 4 3 -1
v 4 3 -3
v 4 3 -4
v 4 5 4
v 4 5 3
v 4 5 1
v 4 5 -1
v 4 5 -3
v 4 5 -4
v 4 6 2
v 4 6 -2
v 4 7 3
v 4 7 1
v 4 7 -1
v 4 7 -3
v 4 8 4
v 4 8 1
v 4 8 -1
v 4 8 -4
v -4 0 4
v -4 3 4
v -4 5 4
v -4 8 4
v -3 1 4
v -3 3 4
v -3 5 4
v -3 7 4
v -2 2 4
v -2 6 4
v -1 0 4
v -1 1 4
v -1 3 4
v -1 5 4
v -1 7 4
v -1 8 4
v 1 0 4
v 1 1 4
v 1 3 4
v 1 5 4
v 1 7 4
v 1 8 4
v 2 2 4
v 2 6 4
v 3 1 4
v 3 3 4
v 3 5 4
v 3 7 4
v 4 0 4
v 4 3 4
v 4 5 4
v 4 8 4
v -4 2 2
v -4 6 2
v -3 2 2
v -3 6 2
v -2 0 2
v -2 1 2
v -2 7 2
v -2 8 2
v 2 0 2
v 2 1 2
v 2 7 2
v 2 8 2
v 3 2 2
v 3 6 2
v 4 2 2
v 4 6 2
v -4 3 -1
v -4 5 -1
v -3 3 -1
v -3 5 -1
v -1 0 -1
v -1 1 -1
v -1 7 -1
v -1 8 -1
v 1 0 -1
v 1 1 -1
v 1 7 -1
v 1 8 -1
v 3 3 -1
v 3 5 -1
v 4 3 -1
v 4 5 -1
v -4 1 -3
v -4 3 -3
v -4 5 -3
v -4 7 -3
v -3 0 -3
v -3 1 -3
v -3 3 -3
v -3 5 -3
v -3 7 -3
v -3 8 -3
v -2 2 -3
v -2 6 -3
v -1 0 -3
v -1 1 -3
v -1 3 -3
v -1 5 -3
v -1 7 -3
v -1 8 -3
v 1 0 -3
v 1 1 -3
v 1 3 -3
v 1 5 -3
v 1 7 -3
v 1 8 -3
v 2 2 -3
v 2 6 -3
v 3 0 -3
v 3 1 -3
v 3 3 -3
v 3 5 -3
v 3 7 -3
v 3 8 -3
v 4 1 -3
v 4 3 -3
v 4 5 -3
v 4 7 -3
v -4 1 3
v -4 3 3
v -4 5 3
v -4 7 3
v -3 0 3
v -3 1 3
v -3 3 3
v -3 5 3
v -3 7 3
v -3 8 3
v -2 2 3
v -2 6 3
v -1 0 3
v -1 1 3
v -1 3 3
v -1 5 3
v -1 7 3
v -1 8 3
v 1 0 3
v 1 1 3
v 1 3 3
v 1 5 3
v 1 7 3
v 1 8 3
v 2 2 3
v 2 6 3
v 3 0 3
v 3 1 3
v 3 3 3
v 3 5 3
v 3 7 3
v 3 8 3
v 4 1 3
v 4 3 3
v 4 5 3
v 4 7 3
v -4 3 1
v -4 5 1
v -3 3 1
v -3 5 1
v -1 0 1
v -1 1 1
v -1 7 1
v -1 8 1
v 1 0 1
v 1 1 1
v 1 7 1
v 1 8 1
v 3 3 1
v 3 5 1
v 4 3 1
v 4 5 1
v -4 2 -2
v -4 6 -2
v -3 2 -2
v -3 6 -2
v -2 0 -2
v -2 1 -2
v -2 7 -2
v -2 8 -2
v 2 0 -2
v 2 1 -2
v 2 7 -2
v 2 8 -2
v 3 2 -2
v 3 6 -2
v 4 2 -2
v 4 6 -2
v -4 0 -4
v -4 3 -4
v -4 5 -4
v -4 8 -4
v -3 1 -4
v -3 3 -4
v -3 5 -4
v -3 7 -4
v -2 2 -4
v -2 6 -4
v -1 0 -4
v -1 1 -4
v -1 3 -4
v -1 5 -4
v -1 7 -4
v -1 8 -4
v 1 0 -4
v 1 1 -4
v 1 3 -4
v 1 5 -4
v 1 7 -4
v 1 8 -4
v 2 2 -4
v 2 6 -4
v 3 1 -4
v 3 3 -4
v 3 5 -4
v 3 7 -4
v 4 0 -4
v 4 3 -4
v 4 5 -4
v 4 8 -4
v -4 0 4
v -1 0 4
v 1 0 4
v 4 0 4
v -3 0 3
v -1 0 3
v 1 0 3
v 3 0 3
v -2 0 2
v 2 0 2
v -4 0 1
v -3 0 1
v -1 0 1
v 1 0 1
v 3 0 1
v 4 0 1
v -4 0 -1
v -3 0 -1
v -1 0 -1
v 1 0 -1
v 3 0 -1
v 4 0 -1
v -2 0 -2
v 2 0 -2
v -3 0 -3
v -1 0 -3
v 1 0 -3
v 3 0 -3
v -4 0 -4
v -1 0 -4
v 1 0 -4
v 4 0 -4
v -2 2 4
v 2 2 4
v -2 2 3
v 2 2 3
v -4 2 2
v -3 2 2
v 3 2 2
v 4 2 2
v -4 2 -2
v -3 2 -2
v 3 2 -2
v 4 2 -2
v -2 2 -3
v 2 2 -3
v -2 2 -4
v 2 2 -4
v -1 5 4
v 1 5 4
v -1 5 3
v 1 5 3
v -4 5 1
v -3 5 1
v 3 5 1
v 4 5 1
v -4 5 -1
v -3 5 -1
v 3 5 -1
v 4 5 -1
v -1 5 -3
v 1 5 -3
v -1 5 -4
v 1 5 -4
v -3 7 4
v -1 7 4
v 1 7 4
v 3 7 4
v -4 7 3
v -3 7 3
v -1 7 3
v 1 7 3
v 3 7 3
v 4 7 3
v -2 7 2
v 2 7 2
v -4 7 1
v -3 7 1
v -1 7 1
v 1 7 1
v 3 7 1
v 4 7 1
v -4 7 -1
v -3 7 -1
v -1 7 -1
v 1 7 -1
v 3 7 -1
v 4 7 -1
v -2 7 -2
v 2 7 -2
v -4 7 -3
v -3 7 -3
v -1 7 -3
v 1 7 -3
v 3 7 -3
v 4 7 -3
v -3 7 -4
v -1 7 -4
v 1 7 -4
v 3 7 -4
v -3 1 4
v -1 1 4
v 1 1 4
v 3 1 4
v -4 1 3
v -3 1 3
v -1 1 3
v 1 1 3
v 3 1 3
v 4 1 3
v -2 1 2
v 2 1 2
v -4 1 1
v -3 1 1
v -1 1 1
v 1 1 1
v 3 1 1
v 4 1 1
v -4 1 -1
v -3 1 -1
v -1 1 -1
v 1 1 -1
v 3 1 -1
v 4 1 -1
v -2 1 -2
v 2 1 -2
v -4 1 -3
v -3 1 -3
v -1 1 -3
v 1 1 -3
v 3 1 -3
v 4 1 -3
v -3 1 -4
v -1 1 -4
v 1 1 -4
v 3 1 -4
v -1 3 4
v 1 3 4
v -1 3 3
v 1 3 3
v -4 3 1
v -3 3 1
v 3 3 1
v 4 3 1
v -4 3 -1
v -3 3 -1
v 3 3 -1
v 4 3 -1
v -1 3 -3
v 1 3 -3
v -1 3 -4
v 1 3 -4
v -2 6 4
v 2 6 4
v -2 6 3
v 2 6 3
v -4 6 2
v -3 6 2
v 3 6 2
v 4 6 2
v -4 6 -2
v -3 6 -2
v 3 6 -2
v 4 6 -2
v -2 6 -3
v 2 6 -3
v -2 6 -4
v 2 6 -4
v -4 8 4
v -1 8 4
v 1 8 4
v 4 8 4
v -3 8 3
v -1 8 3
v 1 8 3
v 3 8 3
v -2 8 2
v 2 8 2
v -4 8 1
v -3 8 1
v -1 8 1
v 1 8 1
v 3 8 1
v 4 8 1
v -4 8 -1
v -3 8 -1
v -1 8 -1
v 1 8 -1
v 3 8 -1
v 4 8 -1
v -2 8 -2
v 2 8 -2
v -3 8 -3
v -1 8 -3
v 1 8 -3
v 3 8 -3
v -4 8 -4
v -1 8 -4
v 1 8 -4
v 4 8 -4

# faces
f 5/1/1 2/1/1 1/1/1
f 6/3/1 3/3/1 2/3/1
f 6/1/1 2/1/1 5/1/1
f 7/1/1 4/1/1 3/1/1
f 7/3/1 3/3/1 6/3/1
f 8/1/1 4/1/1 7/1/1
f 11/1/1 5/1/1 1/1/1
f 12/1/1 5/1/1 11/1/1
f 13/2/1 10/2/1 9/2/1
f 14/2/1 10/2/1 13/2/1
f 15/1/1 4/1/1 8/1/1
f 16/1/1 4/1/1 15/1/1
f 17/3/1 12/3/1 11/3/1
f 18/3/1 12/3/1 17/3/1
f 19/2/1 13/2/1 9/2/1
f 20/2/1 10/2/1 14/2/1
f 21/3/1 16/3/1 15/3/1
f 22/3/1 16/3/1 21/3/1
f 23/2/1 19/2/1 9/2/1
f 23/2/1 20/2/1 19/2/1
f 24/2/1 10/2/1 20/2/1
f 24/2/1 20/2/1 23/2/1
f 25/1/1 18/1/1 17/1/1
f 28/1/1 22/1/1 21/1/1
f 29/1/1 26/1/1 25/1/1
f 29/1/1 25/1/1 17/1/1
f 30/3/1 27/3/1 26/3/1
f 30/1/1 26/1/1 29/1/1
f 31/1/1 28/1/1 27/1/1
f 31/3/1 27/3/1 30/3/1
f 32/1/1 22/1/1 28/1/1
f 32/1/1 28/1/1 31/1/1
f 35/2/1 34/2/1 33/2/1
f 36/2/1 34/2/1 35/2/1
f 41/2/1 38/2/1 37/2/1
f 42/2/1 38/2/1 41/2/1
f 43/2/1 40/2/1 39/2/1
f 44/2/1 40/2/1 43/2/1
f 47/2/1 46/2/1 45/2/1
f 48/2/1 46/2/1 47/2/1
f 51/2/1 50/2/1 49/2/1
f 52/2/1 50/2/1 51/2/1
f 57/2/1 54/2/1 53/2/1
f 58/2/1 54/2/1 57/2/1
f 59/2/1 56/2/1 55/2/1
f 60/2/1 56/2/1 59/2/1
f 63/2/1 62/2/1 61/2/1
f 64/2/1 62/2/1 63/2/1
f 70/1/1 66/1/1 65/1/1
f 71/3/1 67/3/1 66/3/1
f 71/1/1 66/1/1 70/1/1
f 72/1/1 68/1/1 67/1/1
f 72/3/1 67/3/1 71/3/1
f 73/1/1 68/1/1 72/1/1
f 77/1/1 70/1/1 69/1/1
f 78/1/1 70/1/1 77/1/1
f 79/2/1 76/2/1 75/2/1
f 80/2/1 76/2/1 79/2/1
f 81/1/1 74/1/1 73/1/1
f 82/1/1 74/1/1 81/1/1
f 83/3/1 78/3/1 77/3/1
f 84/3/1 78/3/1 83/3/1
f 85/2/1 79/2/1 75/2/1
f 86/2/1 76/2/1 80/2/1
f 87/3/1 82/3/1 81/3/1
f 88/3/1 82/3/1 87/3/1
f 89/2/1 85/2/1 75/2/1
f 89/2/1 86/2/1 85/2/1
f 90/2/1 76/2/1 86/2/1
f 90/2/1 86/2/1 89/2/1
f 91/1/1 84/1/1 83/1/1
f 92/1/1 84/1/1 91/1/1
f 95/1/1 88/1/1 87/1/1
f 96/1/1 88/1/1 95/1/1
f 97/1/1 93/1/1 92/1/1
f 98/3/1 94/3/1 93/3/1
f 98/1/1 93/1/1 97/1/1
f 99/1/1 95/1/1 94/1/1
f 99/3/1 94/3/1 98/3/1
f 100/1/1 95/1/1 99/1/1
f 101/1/2 102/1/2 106/1/2
f 102/3/2 103/3/2 107/3/2
f 106/1/2 102/1/2 107/1/2
f 103/1/2 104/1/2 108/1/2
f 107/3/2 103/3/2 108/3/2
f 108/1/2 104/1/2 109/1/2
f 105/1/2 106/1/2 113/1/2
f 113/1/2 106/1/2 114/1/2
f 111/2/2 112/2/2 115/2/2
f 115/2/2 112/2/2 116/2/2
f 109/1/2 110/1/2 117/1/2
f 117/1/2 110/1/2 118/1/2
f 113/3/2 114/3/2 119/3/2
f 119/3/2 114/3/2 120/3/2
f 111/2/2 115/2/2 121/2/2
f 116/2/2 112/2/2 122/2/2
f 117/3/2 118/3/2 123/3/2
f 123/3/2 118/3/2 124/3/2
f 111/2/2 121/2/2 125/2/2
f 121/2/2 122/2/2 125/2/2
f 122/2/2 112/2/2 126/2/2
f 125/2/2 122/2/2 126/2/2
f 119/1/2 120/1/2 127/1/2
f 127/1/2 120/1/2 128/1/2
f 123/1/2 124/1/2 131/1/2
f 131/1/2 124/1/2 132/1/2
f 128/1/2 129/1/2 133/1/2
f 129/3/2 130/3/2 134/3/2
f 133/1/2 129/1/2 134/1/2
f 130/1/2 131/1/2 135/1/2
f 134/3/2 130/3/2 135/3/2
f 135/1/2 131/1/2 136/1/2
f 137/2/2 138/2/2 139/2/2
f 139/2/2 138/2/2 140/2/2
f 141/2/2 142/2/2 145/2/2
f 145/2/2 142/2/2 146/2/2
f 143/2/2 144/2/2 147/2/2
f 147/2/2 144/2/2 148/2/2
f 149/2/2 150/2/2 151/2/2
f 151/2/2 150/2/2 152/2/2
f 153/2/2 154/2/2 155/2/2
f 155/2/2 154/2/2 156/2/2
f 157/2/2 158/2/2 161/2/2
f 161/2/2 158/2/2 162/2/2
f 159/2/2 160/2/2 163/2/2
f 163/2/2 160/2/2 164/2/2
f 165/2/2 166/2/2 167/2/2
f 167/2/2 166/2/2 168/2/2
f 169/1/2 170/1/2 173/1/2
f 170/3/2 171/3/2 174/3/2
f 173/1/2 170/1/2 174/1/2
f 171/1/2 172/1/2 175/1/2
f 174/3/2 171/3/2 175/3/2
f 175/1/2 172/1/2 176/1/2
f 169/1/2 173/1/2 179/1/2
f 179/1/2 173/1/2 180/1/2
f 177/2/2 178/2/2 181/2/2
f 181/2/2 178/2/2 182/2/2
f 176/1/2 172/1/2 183/1/2
f 183/1/2 172/1/2 184/1/2
f 179/3/2 180/3/2 185/3/2
f 185/3/2 180/3/2 186/3/2
f 177/2/2 181/2/2 187/2/2
f 182/2/2 178/2/2 188/2/2
f 183/3/2 184/3/2 189/3/2
f 189/3/2 184/3/2 190/3/2
f 177/2/2 187/2/2 191/2/2
f 187/2/2 188/2/2 191/2/2
f 188/2/2 178/2/2 192/2/2
f 191/2/2 188/2/2 192/2/2
f 185/1/2 186/1/2 193/1/2
f 189/1/2 190/1/2 196/1/2
f 193/1/2 194/1/2 197/1/2
f 185/1/2 193/1/2 197/1/2
f 194/3/2 195/3/2 198/3/2
f 197/1/2 194/1/2 198/1/2
f 195/1/2 196/1/2 199/1/2
f 198/3/2 195/3/2 199/3/2
f 196/1/2 190/1/2 200/1/2
f 199/1/2 196/1/2 200/1/2
f 205/1/3 202/1/3 201/1/3
f 206/3/3 203/3/3 202/3/3
f 206/1/3 202/1/3 205/1/3
f 207/1/3 204/1/3 203/1/3
f 207/3/3 203/3/3 206/3/3
f 208/1/3 204/1/3 207/1/3
f 211/1/3 205/1/3 201/1/3
f 212/1/3 205/1/3 211/1/3
f 213/2/3 210/2/3 209/2/3
f 214/2/3 210/2/3 213/2/3
f 215/1/3 204/1/3 208/1/3
f 216/1/3 204/1/3 215/1/3
f 217/3/3 212/3/3 211/3/3
f 218/3/3 212/3/3 217/3/3
f 219/2/3 213/2/3 209/2/3
f 220/2/3 210/2/3 214/2/3
f 221/3/3 216/3/3 215/3/3
f 222/3/3 216/3/3 221/3/3
f 223/2/3 219/2/3 209/2/3
f 223/2/3 220/2/3 219/2/3
f 224/2/3 210/2/3 220/2/3
f 224/2/3 220/2/3 223/2/3
f 225/1/3 218/1/3 217/1/3
f 228/1/3 222/1/3 221/1/3
f 229/1/3 226/1/3 225/1/3
f 229/1/3 225/1/3 217/1/3
f 230/3/3 227/3/3 226/3/3
f 230/1/3 226/1/3 229/1/3
f 231/1/3 228/1/3 227/1/3
f 231/3/3 227/3/3 230/3/3
f 232/1/3 222/1/3 228/1/3
f 232/1/3 228/1/3 231/1/3
f 235/2/3 234/2/3 233/2/3
f 236/2/3 234/2/3 235/2/3
f 241/2/3 238/2/3 237/2/3
f 242/2/3 238/2/3 241/2/3
f 243/2/3 240/2/3 239/2/3
f 244/2/3 240/2/3 243/2/3
f 247/2/3 246/2/3 245/2/3
f 248/2/3 246/2/3 247/2/3
f 251/2/3 250/2/3 249/2/3
f 252/2/3 250/2/3 251/2/3
f 257/2/3 254/2/3 253/2/3
f 258/2/3 254/2/3 257/2/3
f 259/2/3 256/2/3 255/2/3
f 260/2/3 256/2/3 259/2/3
f 263/2/3 262/2/3 261/2/3
f 264/2/3 262/2/3 263/2/3
f 270/1/3 266/1/3 265/1/3
f 271/3/3 267/3/3 266/3/3
f 271/1/3 266/1/3 270/1/3
f 272/1/3 268/1/3 267/1/3
f 272/3/3 267/3/3 271/3/3
f 273/1/3 268/1/3 272/1/3
f 277/1/3 270/1/3 269/1/3
f 278/1/3 270/1/3 277/1/3
f 279/2/3 276/2/3 275/2/3
f 280/2/3 276/2/3 279/2/3
f 281/1/3 274/1/3 273/1/3
f 282/1/3 274/1/3 281/1/3
f 283/3/3 278/3/3 277/3/3
f 284/3/3 278/3/3 283/3/3
f 285/2/3 279/2/3 275/2/3
f 286/2/3 276/2/3 280/2/3
f 287/3/3 282/3/3 281/3/3
f 288/3/3 282/3/3 287/3/3
f 289/2/3 285/2/3 275/2/3
f 289/2/3 286/2/3 285/2/3
f 290/2/3 276/2/3 286/2/3
f 290/2/3 286/2/3 289/2/3
f 291/1/3 284/1/3 283/1/3
f 292/1/3 284/1/3 291/1/3
f 295/1/3 288/1/3 287/1/3
f 296/1/3 288/1/3 295/1/3
f 297/1/3 293/1/3 292/1/3
f 298/3/3 294/3/3 293/3/3
f 298/1/3 293/1/3 297/1/3
f 299/1/3 295/1/3 294/1/3
f 299/3/3 294/3/3 298/3/3
f 300/1/3 295/1/3 299/1/3
f 301/1/4 302/1/4 306/1/4
f 302/3/4 303/3/4 307/3/4
f 306/1/4 302/1/4 307/1/4
f 303/1/4 304/1/4 308/1/4
f 307/3/4 303/3/4 308/3/4
f 308/1/4 304/1/4 309/1/4
f 305/1/4 306/1/4 313/1/4
f 313/1/4 306/1/4 314/1/4
f 311/2/4 312/2/4 315/2/4
f 315/2/4 312/2/4 316/2/4
f 309/1/4 310/1/4 317/1/4
f 317/1/4 310/1/4 318/1/4
f 313/3/4 314/3/4 319/3/4
f 319/3/4 314/3/4 320/3/4
f 311/2/4 315/2/4 321/2/4
f 316/2/4 312/2/4 322/2/4
f 317/3/4 318/3/4 323/3/4
f 323/3/4 318/3/4 324/3/4
f 311/2/4 321/2/4 325/2/4
f 321/2/4 322/2/4 325/2/4
f 322/2/4 312/2/4 326/2/4
f 325/2/4 322/2/4 326/2/4
f 319/1/4 320/1/4 327/1/4
f 327/1/4 320/1/4 328/1/4
f 323/1/4 324/1/4 331/1/4
f 331/1/4 324/1/4 332/1/4
f 328/1/4 329/1/4 333/1/4
f 329/3/4 330/3/4 334/3/4
f 333/1/4 329/1/4 334/1/4
f 330/1/4 331/1/4 335/1/4
f 334/3/4 330/3/4 335/3/4
f 335/1/4 331/1/4 336/1/4
f 337/2/4 338/2/4 339/2/4
f 339/2/4 338/2/4 340/2/4
f 341/2/4 342/2/4 345/2/4
f 345/2/4 342/2/4 346/2/4
f 343/2/4 344/2/4 347/2/4
f 347/2/4 344/2/4 348/2/4
f 349/2/4 350/2/4 351/2/4
f 351/2/4 350/2/4 352/2/4
f 353/2/4 354/2/4 355/2/4
f 355/2/4 354/2/4 356/2/4
f 357/2/4 358/2/4 361/2/4
f 361/2/4 358/2/4 362/2/4
f 359/2/4 360/2/4 363/2/4
f 363/2/4 360/2/4 364/2/4
f 365/2/4 366/2/4 367/2/4
f 367/2/4 366/2/4 368/2/4
f 369/1/4 370/1/4 373/1/4
f 370/3/4 371/3/4 374/3/4
f 373/1/4 370/1/4 374/1/4
f 371/1/4 372/1/4 375/1/4
f 374/3/4 371/3/4 375/3/4
f 375/1/4 372/1/4 376/1/4
f 369/1/4 373/1/4 379/1/4
f 379/1/4 373/1/4 380/1/4
f 377/2/4 378/2/4 381/2/4
f 381/2/4 378/2/4 382/2/4
f 376/1/4 372/1/4 383/1/4
f 383/1/4 372/1/4 384/1/4
f 379/3/4 380/3/4 385/3/4
f 385/3/4 380/3/4 386/3/4
f 377/2/4 381/2/4 387/2/4
f 382/2/4 378/2/4 388/2/4
f 383/3/4 384/3/4 389/3/4
f 389/3/4 384/3/4 390/3/4
f 377/2/4 387/2/4 391/2/4
f 387/2/4 388/2/4 391/2/4
f 388/2/4 378/2/4 392/2/4
f 391/2/4 388/2/4 392/2/4
f 385/1/4 386/1/4 393/1/4
f 389/1/4 390/1/4 396/1/4
f 393/1/4 394/1/4 397/1/4
f 385/1/4 393/1/4 397/1/4
f 394/3/4 395/3/4 398/3/4
f 397/1/4 394/1/4 398/1/4
f 395/1/4 396/1/4 399/1/4
f 398/3/4 395/3/4 399/3/4
f 396/1/4 390/1/4 400/1/4
f 399/1/4 396/1/4 400/1/4
f 405/1/5 402/1/5 401/1/5
f 406/3/5 403/3/5 402/3/5
f 406/1/5 402/1/5 405/1/5
f 407/1/5 404/1/5 403/1/5
f 407/3/5 403/3/5 406/3/5
f 408/1/5 404/1/5 407/1/5
f 411/1/5 405/1/5 401/1/5
f 412/1/5 405/1/5 411/1/5
f 413/2/5 410/2/5 409/2/5
f 414/2/5 410/2/5 413/2/5
f 415/1/5 404/1/5 408/1/5
f 416/1/5 404/1/5 415/1/5
f 417/3/5 412/3/5 411/3/5
f 418/3/5 412/3/5 417/3/5
f 419/2/5 413/2/5 409/2/5
f 420/2/5 410/2/5 414/2/5
f 421/3/5 416/3/5 415/3/5
f 422/3/5 416/3/5 421/3/5
f 423/2/5 419/2/5 409/2/5
f 423/2/5 420/2/5 419/2/5
f 424/2/5 410/2/5 420/2/5
f 424/2/5 420/2/5 423/2/5
f 425/1/5 418/1/5 417/1/5
f 428/1/5 422/1/5 421/1/5
f 429/1/5 426/1/5 425/1/5
f 429/1/5 425/1/5 417/1/5
f 430/3/5 427/3/5 426/3/5
f 430/1/5 426/1/5 429/1/5
f 431/1/5 428/1/5 427/1/5
f 431/3/5 427/3/5 430/3/5
f 432/1/5 422/1/5 428/1/5
f 432/1/5 428/1/5 431/1/5
f 435/2/5 434/2/5 433/2/5
f 436/2/5 434/2/5 435/2/5
f 441/2/5 438/2/5 437/2/5
f 442/2/5 438/2/5 441/2/5
f 443/2/5 440/2/5 439/2/5
f 444/2/5 440/2/5 443/2/5
f 447/2/5 446/2/5 445/2/5
f 448/2/5 446/2/5 447/2/5
f 451/2/5 450/2/5 449/2/5
f 452/2/5 450/2/5 451/2/5
f 457/2/5 454/2/5 453/2/5
f 458/2/5 454/2/5 457/2/5
f 459/2/5 456/2/5 455/2/5
f 460/2/5 456/2/5 459/2/5
f 463/2/5 462/2/5 461/2/5
f 464/2/5 462/2/5 463/2/5
f 470/1/5 466/1/5 465/1/5
f 471/3/5 467/3/5 466/3/5
f 471/1/5 466/1/5 470/1/5
f 472/1/5 468/1/5 467/1/5
f 472/3/5 467/3/5 471/3/5
f 473/1/5 468/1/5 472/1/5
f 477/1/5 470/1/5 469/1/5
f 478/1/5 470/1/5 477/1/5
f 479/2/5 476/2/5 475/2/5
f 480/2/5 476/2/5 479/2/5
f 481/1/5 474/1/5 473/1/5
f 482/1/5 474/1/5 481/1/5
f 483/3/5 478/3/5 477/3/5
f 484/3/5 478/3/5 483/3/5
f 485/2/5 479/2/5 475/2/5
f 486/2/5 476/2/5 480/2/5
f 487/3/5 482/3/5 481/3/5
f 488/3/5 482/3/5 487/3/5
f 489/2/5 485/2/5 475/2/5
f 489/2/5 486/2/5 485/2/5
f 490/2/5 476/2/5 486/2/5
f 490/2/5 486/2/5 489/2/5
f 491/1/5 484/1/5 483/1/5
f 492/1/5 484/1/5 491/1/5
f 495/1/5 488/1/5 487/1/5
f 496/1/5 488/1/5 495/1/5
f 497/1/5 493/1/5 492/1/5
f 498/3/5 494/3/5 493/3/5
f 498/1/5 493/1/5 497/1/5
f 499/1/5 495/1/5 494/1/5
f 499/3/5 494/3/5 498/3/5
f 500/1/5 495/1/5 499/1/5
f 501/1/6 502/1/6 506/1/6
f 502/3/6 503/3/6 507/3/6
f 506/1/6 502/1/6 507/1/6
f 503/1/6 504/1/6 508/1/6
f 507/3/6 503/3/6 508/3/6
f 508/1/6 504/1/6 509/1/6
f 505/1/6 506/1/6 513/1/6
f 513/1/6 506/1/6 514/1/6
f 511/2/6 512/2/6 515/2/6
f 515/2/6 512/2/6 516/2/6
f 509/1/6 510/1/6 517/1/6
f 517/1/6 510/1/6 518/1/6
f 513/3/6 514/3/6 519/3/6
f 519/3/6 514/3/6 520/3/6
f 511/2/6 515/2/6 521/2/6
f 516/2/6 512/2/6 522/2/6
f 517/3/6 518/3/6 523/3/6
f 523/3/6 518/3/6 524/3/6
f 511/2/6 521/2/6 525/2/6
f 521/2/6 522/2/6 525/2/6
f 522/2/6 512/2/6 526/2/6
f 525/2/6 522/2/6 526/2/6
f 519/1/6 520/1/6 527/1/6
f 527/1/6 520/1/6 528/1/6
f 523/1/6 524/1/6 531/1/6
f 531/1/6 524/1/6 532/1/6
f 528/1/6 529/1/6 533/1/6
f 529/3/6 530/3/6 534/3/6
f 533/1/6 529/1/6 534/1/6
f 530/1/6 531/1/6 535/1/6
f 534/3/6 530/3/6 535/3/6
f 535/1/6 531/1/6 536/1/6
f 537/2/6 538/2/6 539/2/6
f 539/2/6 538/2/6 540/2/6
f 541/2/6 542/2/6 545/2/6
f 545/2/6 542/2/6 546/2/6
f 543/2/6 544/2/6 547/2/6
f 547/2/6 544/2/6 548/2/6
f 549/2/6 550/2/6 551/2/6
f 551/2/6 550/2/6 552/2/6
f 553/2/6 554/2/6 555/2/6
f 555/2/6 554/2/6 556/2/6
f 557/2/6 558/2/6 561/2/6
f 561/2/6 558/2/6 562/2/6
f 559/2/6 560/2/6 563/2/6
f 563/2/6 560/2/6 564/2/6
f 565/2/6 566/2/6 567/2/6
f 567/2/6 566/2/6 568/2/6
f 569/1/6 570/1/6 573/1/6
f 570/3/6 571/3/6 574/3/6
f 573/1/6 570/1/6 574/1/6
f 571/1/6 572/1/6 575/1/6
f 574/3/6 571/3/6 575/3/6
f 575/1/6 572/1/6 576/1/6
f 569/1/6 573/1/6 579/1/6
f 579/1/6 573/1/6 580/1/6
f 577/2/6 578/2/6 581/2/6
f 581/2/6 578/2/6 582/2/6
f 576/1/6 572/1/6 583/1/6
f 583/1/6 572/1/6 584/1/6
f 579/3/6 580/3/6 585/3/6
f 585/3/6 580/3/6 586/3/6
f 577/2/6 581/2/6 587/2/6
f 582/2/6 578/2/6 588/2/6
f 583/3/6 584/3/6 589/3/6
f 589/3/6 584/3/6 590/3/6
f 577/2/6 587/2/6 591/2/6
f 587/2/6 588/2/6 591/2/6
f 588/2/6 578/2/6 592/2/6
f 591/2/6 588/2/6 592/2/6
f 585/1/6 586/1/6 593/1/6
f 589/1/6 590/1/6 596/1/6
f 593/1/6 594/1/6 597/1/6
f 585/1/6 593/1/6 597/1/6
f 594/3/6 595/3/6 598/3/6
f 597/1/6 594/1/6 598/1/6
f 595/1/6 596/1/6 599/1/6
f 598/3/6 595/3/6 599/3/6
f 596/1/6 590/1/6 600/1/6
f 599/1/6 596/1/6 600/1/6
